<?xml version="1.0" encoding="UTF-8" standalone="no"?>
<!-- Created with Inkscape (http://www.inkscape.org/) -->

<svg
   xmlns:dc="http://purl.org/dc/elements/1.1/"
   xmlns:cc="http://creativecommons.org/ns#"
   xmlns:rdf="http://www.w3.org/1999/02/22-rdf-syntax-ns#"
   xmlns:svg="http://www.w3.org/2000/svg"
   xmlns="http://www.w3.org/2000/svg"
   xmlns:xlink="http://www.w3.org/1999/xlink"
   xmlns:sodipodi="http://sodipodi.sourceforge.net/DTD/sodipodi-0.dtd"
   xmlns:inkscape="http://www.inkscape.org/namespaces/inkscape"
   width="4455"
   height="5695"
   id="svg1324167"
   version="1.1"
   inkscape:version="0.48.4 r9939"
   sodipodi:docname="rect-double-weave-tile-12.svg"
   inkscape:export-filename="/home/ackley/papers/MF/asrepo/RT13/hardware/T2/drawings/hex/rect-double-weave-tile-12.png"
   inkscape:export-xdpi="100.00351"
   inkscape:export-ydpi="100.00351">
  <defs
     id="defs1324169" />
  <sodipodi:namedview
     id="base"
     pagecolor="#ffffff"
     bordercolor="#666666"
     borderopacity="1.0"
     inkscape:pageopacity="0.0"
     inkscape:pageshadow="2"
     inkscape:zoom="0.125"
     inkscape:cx="1128.9323"
     inkscape:cy="2833.1854"
     inkscape:document-units="px"
     inkscape:current-layer="layer1"
     showgrid="false"
     inkscape:window-width="1920"
     inkscape:window-height="1052"
     inkscape:window-x="0"
     inkscape:window-y="0"
     inkscape:window-maximized="1"
     fit-margin-top="0"
     fit-margin-left="0"
     fit-margin-right="0"
     fit-margin-bottom="0" />
  <metadata
     id="metadata1324172">
    <rdf:RDF>
      <cc:Work
         rdf:about="">
        <dc:format>image/svg+xml</dc:format>
        <dc:type
           rdf:resource="http://purl.org/dc/dcmitype/StillImage" />
        <dc:title></dc:title>
      </cc:Work>
    </rdf:RDF>
  </metadata>
  <g
     inkscape:label="Layer 1"
     inkscape:groupmode="layer"
     id="layer1"
     transform="translate(6047,2443.625)">
    <g
       id="g1324909"
       transform="matrix(1.2,0,0,0.57559416,-6316.3097,-3050.418)">
      <rect
         y="-643.12408"
         x="885.71429"
         height="521.20056"
         width="500"
         id="rect1324901"
         style="fill:#88fafa;fill-opacity:1;stroke:none" />
      <rect
         y="-619.76233"
         x="896.85626"
         height="472.86496"
         width="477.08511"
         id="rect1324905"
         style="fill:none;stroke:#000000;stroke-width:32.06718826;stroke-miterlimit:4;stroke-opacity:1;stroke-dasharray:none" />
      <path
         sodipodi:type="arc"
         style="fill:#88fafa;fill-opacity:1;stroke:#000000;stroke-width:39;stroke-linecap:butt;stroke-linejoin:miter;stroke-miterlimit:4;stroke-opacity:1;stroke-dasharray:none"
         id="path1327971"
         sodipodi:cx="-5712.0088"
         sodipodi:cy="-1856.6752"
         sodipodi:rx="24.04163"
         sodipodi:ry="24.04163"
         d="m -5687.9672,-1856.6752 c 0,13.2779 -10.7638,24.0417 -24.0416,24.0417 -13.2778,0 -24.0416,-10.7638 -24.0416,-24.0417 0,-13.2778 10.7638,-24.0416 24.0416,-24.0416 13.2778,0 24.0416,10.7638 24.0416,24.0416 z"
         transform="matrix(0.18374186,0,0,0.38306545,1974.9452,327.89826)" />
      <path
         sodipodi:type="arc"
         style="fill:#88fafa;fill-opacity:1;stroke:#000000;stroke-width:39;stroke-linecap:butt;stroke-linejoin:miter;stroke-miterlimit:4;stroke-opacity:1;stroke-dasharray:none"
         id="path1327971-6"
         sodipodi:cx="-5712.0088"
         sodipodi:cy="-1856.6752"
         sodipodi:rx="24.04163"
         sodipodi:ry="24.04163"
         d="m -5687.9672,-1856.6752 c 0,13.2779 -10.7638,24.0417 -24.0416,24.0417 -13.2778,0 -24.0416,-10.7638 -24.0416,-24.0417 0,-13.2778 10.7638,-24.0416 24.0416,-24.0416 13.2778,0 24.0416,10.7638 24.0416,24.0416 z"
         transform="matrix(0.18374186,0,0,0.38306546,2063.6567,508.61833)" />
      <path
         sodipodi:type="arc"
         style="fill:#88fafa;fill-opacity:1;stroke:#000000;stroke-width:39;stroke-linecap:butt;stroke-linejoin:miter;stroke-miterlimit:4;stroke-opacity:1;stroke-dasharray:none"
         id="path1327971-4"
         sodipodi:cx="-5712.0088"
         sodipodi:cy="-1856.6752"
         sodipodi:rx="24.04163"
         sodipodi:ry="24.04163"
         d="m -5687.9672,-1856.6752 c 0,13.2779 -10.7638,24.0417 -24.0416,24.0417 -13.2778,0 -24.0416,-10.7638 -24.0416,-24.0417 0,-13.2778 10.7638,-24.0416 24.0416,-24.0416 13.2778,0 24.0416,10.7638 24.0416,24.0416 z"
         transform="matrix(0.18374186,0,0,0.38306546,2308.6584,508.61833)" />
      <path
         sodipodi:type="arc"
         style="fill:#88fafa;fill-opacity:1;stroke:#000000;stroke-width:39;stroke-linecap:butt;stroke-linejoin:miter;stroke-miterlimit:4;stroke-opacity:1;stroke-dasharray:none"
         id="path1327971-3"
         sodipodi:cx="-5712.0088"
         sodipodi:cy="-1856.6752"
         sodipodi:rx="24.04163"
         sodipodi:ry="24.04163"
         d="m -5687.9672,-1856.6752 c 0,13.2779 -10.7638,24.0417 -24.0416,24.0417 -13.2778,0 -24.0416,-10.7638 -24.0416,-24.0417 0,-13.2778 10.7638,-24.0416 24.0416,-24.0416 13.2778,0 24.0416,10.7638 24.0416,24.0416 z"
         transform="matrix(0.18374186,0,0,0.38306546,2185.3244,147.25261)" />
      <path
         sodipodi:type="arc"
         style="fill:#88fafa;fill-opacity:1;stroke:#000000;stroke-width:39;stroke-linecap:butt;stroke-linejoin:miter;stroke-miterlimit:4;stroke-opacity:1;stroke-dasharray:none"
         id="path1327971-36"
         sodipodi:cx="-5712.0088"
         sodipodi:cy="-1856.6752"
         sodipodi:rx="24.04163"
         sodipodi:ry="24.04163"
         d="m -5687.9672,-1856.6752 c 0,13.2779 -10.7638,24.0417 -24.0416,24.0417 -13.2778,0 -24.0416,-10.7638 -24.0416,-24.0417 0,-13.2778 10.7638,-24.0416 24.0416,-24.0416 13.2778,0 24.0416,10.7638 24.0416,24.0416 z"
         transform="matrix(0.18374186,0,0,0.38306546,2398.658,185.47399)" />
      <path
         sodipodi:type="arc"
         style="fill:#88fafa;fill-opacity:1;stroke:#000000;stroke-width:39;stroke-linecap:butt;stroke-linejoin:miter;stroke-miterlimit:4;stroke-opacity:1;stroke-dasharray:none"
         id="path1327971-9"
         sodipodi:cx="-5712.0088"
         sodipodi:cy="-1856.6752"
         sodipodi:rx="24.04163"
         sodipodi:ry="24.04163"
         d="m -5687.9672,-1856.6752 c 0,13.2779 -10.7638,24.0417 -24.0416,24.0417 -13.2778,0 -24.0416,-10.7638 -24.0416,-24.0417 0,-13.2778 10.7638,-24.0416 24.0416,-24.0416 13.2778,0 24.0416,10.7638 24.0416,24.0416 z"
         transform="matrix(0.18374186,0,0,0.38306546,2398.658,466.92228)" />
    </g>
    <g
       transform="matrix(0,-1.2,0.57559416,0,-5384.9199,-1694.1154)"
       id="use1324932">
      <rect
         style="fill:#ccfde2;fill-opacity:1;stroke:none"
         id="rect1328039"
         width="500"
         height="521.20056"
         x="885.71429"
         y="-643.12408" />
      <rect
         style="fill:none;stroke:#000000;stroke-width:32.06718826;stroke-miterlimit:4;stroke-opacity:1;stroke-dasharray:none"
         id="rect1328041"
         width="477.08511"
         height="472.86496"
         x="896.85626"
         y="-619.76233" />
      <path
         transform="matrix(0.18374186,0,0,0.38306545,1974.9452,327.89826)"
         d="m -5687.9672,-1856.6752 c 0,13.2779 -10.7638,24.0417 -24.0416,24.0417 -13.2778,0 -24.0416,-10.7638 -24.0416,-24.0417 0,-13.2778 10.7638,-24.0416 24.0416,-24.0416 13.2778,0 24.0416,10.7638 24.0416,24.0416 z"
         sodipodi:ry="24.04163"
         sodipodi:rx="24.04163"
         sodipodi:cy="-1856.6752"
         sodipodi:cx="-5712.0088"
         id="path1328043"
         style="fill:#88fafa;fill-opacity:1;stroke:#000000;stroke-width:39;stroke-linecap:butt;stroke-linejoin:miter;stroke-miterlimit:4;stroke-opacity:1;stroke-dasharray:none"
         sodipodi:type="arc" />
      <path
         transform="matrix(0.18374186,0,0,0.38306546,2185.3244,508.61833)"
         d="m -5687.9672,-1856.6752 c 0,13.2779 -10.7638,24.0417 -24.0416,24.0417 -13.2778,0 -24.0416,-10.7638 -24.0416,-24.0417 0,-13.2778 10.7638,-24.0416 24.0416,-24.0416 13.2778,0 24.0416,10.7638 24.0416,24.0416 z"
         sodipodi:ry="24.04163"
         sodipodi:rx="24.04163"
         sodipodi:cy="-1856.6752"
         sodipodi:cx="-5712.0088"
         id="path1328045"
         style="fill:#88fafa;fill-opacity:1;stroke:#000000;stroke-width:39;stroke-linecap:butt;stroke-linejoin:miter;stroke-miterlimit:4;stroke-opacity:1;stroke-dasharray:none"
         sodipodi:type="arc" />
      <path
         transform="matrix(0.18374186,0,0,0.38306546,2018.6567,140.30331)"
         d="m -5687.9672,-1856.6752 c 0,13.2779 -10.7638,24.0417 -24.0416,24.0417 -13.2778,0 -24.0416,-10.7638 -24.0416,-24.0417 0,-13.2778 10.7638,-24.0416 24.0416,-24.0416 13.2778,0 24.0416,10.7638 24.0416,24.0416 z"
         sodipodi:ry="24.04163"
         sodipodi:rx="24.04163"
         sodipodi:cy="-1856.6752"
         sodipodi:cx="-5712.0088"
         id="path1328047"
         style="fill:#88fafa;fill-opacity:1;stroke:#000000;stroke-width:39;stroke-linecap:butt;stroke-linejoin:miter;stroke-miterlimit:4;stroke-opacity:1;stroke-dasharray:none"
         sodipodi:type="arc" />
      <path
         transform="matrix(0.18374186,0,0,0.38306546,2200.3245,147.25261)"
         d="m -5687.9672,-1856.6752 c 0,13.2779 -10.7638,24.0417 -24.0416,24.0417 -13.2778,0 -24.0416,-10.7638 -24.0416,-24.0417 0,-13.2778 10.7638,-24.0416 24.0416,-24.0416 13.2778,0 24.0416,10.7638 24.0416,24.0416 z"
         sodipodi:ry="24.04163"
         sodipodi:rx="24.04163"
         sodipodi:cy="-1856.6752"
         sodipodi:cx="-5712.0088"
         id="path1328049"
         style="fill:#88fafa;fill-opacity:1;stroke:#000000;stroke-width:39;stroke-linecap:butt;stroke-linejoin:miter;stroke-miterlimit:4;stroke-opacity:1;stroke-dasharray:none"
         sodipodi:type="arc" />
      <path
         transform="matrix(0.18374186,0,0,0.38306546,2375.3254,157.67663)"
         d="m -5687.9672,-1856.6752 c 0,13.2779 -10.7638,24.0417 -24.0416,24.0417 -13.2778,0 -24.0416,-10.7638 -24.0416,-24.0417 0,-13.2778 10.7638,-24.0416 24.0416,-24.0416 13.2778,0 24.0416,10.7638 24.0416,24.0416 z"
         sodipodi:ry="24.04163"
         sodipodi:rx="24.04163"
         sodipodi:cy="-1856.6752"
         sodipodi:cx="-5712.0088"
         id="path1328051"
         style="fill:#88fafa;fill-opacity:1;stroke:#000000;stroke-width:39;stroke-linecap:butt;stroke-linejoin:miter;stroke-miterlimit:4;stroke-opacity:1;stroke-dasharray:none"
         sodipodi:type="arc" />
      <path
         transform="matrix(0.18374186,0,0,0.38306546,2398.658,338.35949)"
         d="m -5687.9672,-1856.6752 c 0,13.2779 -10.7638,24.0417 -24.0416,24.0417 -13.2778,0 -24.0416,-10.7638 -24.0416,-24.0417 0,-13.2778 10.7638,-24.0416 24.0416,-24.0416 13.2778,0 24.0416,10.7638 24.0416,24.0416 z"
         sodipodi:ry="24.04163"
         sodipodi:rx="24.04163"
         sodipodi:cy="-1856.6752"
         sodipodi:cx="-5712.0088"
         id="path1328053"
         style="fill:#88fafa;fill-opacity:1;stroke:#000000;stroke-width:39;stroke-linecap:butt;stroke-linejoin:miter;stroke-miterlimit:4;stroke-opacity:1;stroke-dasharray:none"
         sodipodi:type="arc" />
    </g>
    <g
       id="g1326830"
       transform="translate(-2144.2052,-895.45166)">
      <use
         height="1052.3622"
         width="744.09448"
         transform="matrix(-1,0,0,-1,-8867.5426,-5538.1974)"
         id="use1326826"
         xlink:href="#g1324909"
         y="0"
         x="0" />
      <use
         height="1052.3622"
         width="744.09448"
         transform="translate(1039.3625,1302.9956)"
         id="use1326828"
         xlink:href="#g1324909"
         y="0"
         x="0" />
    </g>
    <g
       transform="matrix(-1,0,0,-1,-12379.657,-3279.5871)"
       id="use1326977">
      <g
         id="g1328220"
         transform="matrix(-1,0,0,-1,-9279.2898,-3616.9021)">
        <use
           height="1052.3622"
           width="744.09448"
           transform="translate(-707.26494,1504.7149)"
           id="use1328222"
           xlink:href="#use1324932"
           y="0"
           x="0" />
        <use
           height="1052.3622"
           width="744.09448"
           transform="matrix(-1,0,0,-1,-11633.462,-4609.2302)"
           id="use1328224"
           xlink:href="#use1324932"
           y="0"
           x="0" />
      </g>
      <use
         x="0"
         y="0"
         xlink:href="#g1326830"
         id="use1328226"
         transform="matrix(-1,0,0,-1,-9167.2213,-5677.6972)"
         width="744.09448"
         height="1052.3622" />
    </g>
    <use
       x="0"
       y="0"
       xlink:href="#use1326977"
       id="use1327018"
       transform="matrix(0,1,-1,0,-8741.6849,6430.9097)"
       width="744.09448"
       height="1052.3622" />
    <flowRoot
       xml:space="preserve"
       id="flowRoot1327080"
       style="font-size:11px;font-style:normal;font-variant:normal;font-weight:normal;font-stretch:normal;text-align:start;line-height:125%;letter-spacing:0px;word-spacing:0px;writing-mode:lr-tb;text-anchor:start;fill:#000000;fill-opacity:1;stroke:none;font-family:Gillius ADF No2;-inkscape-font-specification:Gillius ADF No2"><flowRegion
         id="flowRegion1327082"><rect
           id="rect1327084"
           width="82"
           height="14"
           x="-1566"
           y="-1655.6378" /></flowRegion><flowPara
         id="flowPara1327086"></flowPara></flowRoot>    <g
       id="g1328193"
       transform="translate(-2961.9781,-312.80404)">
      <g
         transform="translate(5e-5,-20.000188)"
         id="g1328130">
        <g
           id="g1328059"
           transform="translate(872.2348,333.06469)">
          <use
             height="1052.3622"
             width="744.09448"
             transform="translate(-715.26505,1504.7149)"
             id="use1328055"
             xlink:href="#use1324932"
             y="0"
             x="0" />
          <use
             height="1052.3622"
             width="744.09448"
             transform="matrix(-1,0,0,-1,-11625.462,-4609.2302)"
             id="use1328057"
             xlink:href="#use1324932"
             y="0"
             x="0" />
        </g>
        <g
           id="g1328126"
           transform="translate(-20.039215,214.00248)">
          <use
             height="1052.3622"
             width="744.09448"
             transform="translate(-324.63691,2587.4013)"
             id="use1328122"
             xlink:href="#g1324909"
             y="0"
             x="0" />
          <use
             height="1052.3622"
             width="744.09448"
             transform="matrix(-1,0,0,-1,-10231.542,-4253.7918)"
             id="use1328124"
             xlink:href="#g1324909"
             y="0"
             x="0" />
        </g>
      </g>
      <use
         height="1052.3622"
         width="744.09448"
         transform="translate(0,1200.0004)"
         id="use1328191"
         xlink:href="#g1328130"
         y="0"
         x="0" />
    </g>
    <use
       x="0"
       y="0"
       xlink:href="#g1328193"
       id="use1328288"
       transform="matrix(-1,0,0,-1,-15824.107,-1270.5033)"
       width="744.09448"
       height="1052.3622" />
    <g
       id="g1328644">
      <use
         height="1052.3622"
         width="744.09448"
         transform="translate(4100.2461,-67.882253)"
         id="use1328515"
         xlink:href="#g1328193"
         y="0"
         x="0" />
      <use
         height="1052.3622"
         width="744.09448"
         transform="translate(-1200.0011,260.21529)"
         id="use1328517"
         xlink:href="#use1328515"
         y="0"
         x="0" />
      <use
         height="1052.3622"
         width="744.09448"
         transform="translate(4004.1406,-220.61731)"
         id="use1328519"
         xlink:href="#use1328288"
         y="0"
         x="0" />
      <use
         height="1052.3622"
         width="744.09448"
         transform="translate(-1200.0011,243.24472)"
         id="use1328521"
         xlink:href="#use1328519"
         y="0"
         x="0" />
      <use
         height="1052.3622"
         width="744.09448"
         transform="translate(5300.2471,-328.09754)"
         id="use1328523"
         xlink:href="#g1328193"
         y="0"
         x="0" />
      <use
         height="1052.3622"
         width="744.09448"
         transform="translate(5204.1416,-497.80317)"
         id="use1328525"
         xlink:href="#use1328288"
         y="0"
         x="0" />
    </g>
    <use
       x="0"
       y="0"
       xlink:href="#g1328644"
       id="use1328705"
       transform="translate(-5.6568542,2398.5062)"
       width="744.09448"
       height="1052.3622" />
    <rect
       style="fill:none;stroke:#000000;stroke-width:39;stroke-linecap:butt;stroke-linejoin:miter;stroke-miterlimit:4;stroke-opacity:1;stroke-dasharray:none"
       id="rect1328722"
       width="4416"
       height="5656"
       x="144"
       y="-16.999992"
       transform="translate(-6171.5,-2407.125)" />
  </g>
</svg>
